<svg width="21" height="20" viewBox="0 0 21 20" fill="none" xmlns="http://www.w3.org/2000/svg">
<path d="M10.6737 1.66663C7.00708 1.66663 4.00708 4.66663 4.00708 8.33329C4.00708 12.8333 9.84041 17.9166 10.0904 18.1666C10.2571 18.25 10.5071 18.3333 10.6737 18.3333C10.8404 18.3333 11.0904 18.25 11.2571 18.1666C11.5071 17.9166 17.3404 12.8333 17.3404 8.33329C17.3404 4.66663 14.3404 1.66663 10.6737 1.66663ZM10.6737 16.4166C8.92375 14.75 5.67375 11.1666 5.67375 8.33329C5.67375 5.58329 7.92375 3.33329 10.6737 3.33329C13.4237 3.33329 15.6737 5.58329 15.6737 8.33329C15.6737 11.0833 12.4237 14.75 10.6737 16.4166ZM10.6737 4.99996C8.84041 4.99996 7.34041 6.49996 7.34041 8.33329C7.34041 10.1666 8.84041 11.6666 10.6737 11.6666C12.5071 11.6666 14.0071 10.1666 14.0071 8.33329C14.0071 6.49996 12.5071 4.99996 10.6737 4.99996ZM10.6737 9.99996C9.75708 9.99996 9.00708 9.24996 9.00708 8.33329C9.00708 7.41663 9.75708 6.66663 10.6737 6.66663C11.5904 6.66663 12.3404 7.41663 12.3404 8.33329C12.3404 9.24996 11.5904 9.99996 10.6737 9.99996Z" fill="#5570CC"/>
</svg>
