<svg width="110" height="110" viewBox="0 0 110 110" fill="none" xmlns="http://www.w3.org/2000/svg">
<path d="M16.0352 73.9384C10.7573 73.8173 6.68242 74.0903 3.14426 77.9898C-0.798537 82.3353 -0.587158 88.7092 1.78731 92.845C4.16178 96.9808 7.43852 96.7575 10.9467 99.935C14.3478 103.016 14.5208 106.913 18.749 108.713C24.3388 111.092 30.0071 110.225 34.0146 105.674C37.3888 101.843 37.407 98.2469 36.3892 92.845C35.3715 87.4431 26.9053 74.1877 16.0352 73.9384Z" fill="#E6F4F1"/>
<path d="M110 98.6981C110 87.5567 107.65 73.5544 100.841 59.1968C96.0089 49.0088 85.5751 35.9011 82.8612 33.2002C81.5043 31.8497 36.7253 74.7272 36.7253 74.7272C46.5631 86.2062 47.5928 97.7986 51.3124 103.087C55.0321 108.376 60.5077 111.041 66.9172 109.502C73.0128 108.038 74.7302 104.213 75.3981 98.3605C76.0659 92.5077 68.6134 74.052 67.5957 71.3511C66.578 68.6501 67.8696 66.1505 69.6311 65.2739C72.345 63.9234 74.7771 65.5944 76.4158 68.3125C77.4335 70.0006 80.6554 75.4957 82.522 80.4667C85.4962 88.3875 85.5645 92.5077 88.2784 99.5976C91.0951 106.956 94.0958 110.249 100.162 109.502C106.115 108.768 110 104.668 110 98.6981Z" fill="#E6F4F1"/>
<path d="M11.9809 1.12193C23.1742 0.943401 36.4568 4.82145 51.3072 10.6206C65.8994 16.3189 82.8678 32.8619 82.8645 33.1997C82.8611 33.5374 36.7318 74.6711 36.7318 74.6711C25.0416 65.0654 12.629 63.7218 8.00598 60.6098C3.383 57.4978 -0.763103 51.4129 1.31131 45.1841C3.03689 40.0028 6.5695 37.5806 14.3556 37.2471C22.1417 36.9136 40.7999 46.4062 43.5297 47.3756C46.2596 48.3451 49.462 48.1297 50.3144 46.3628C51.6277 43.6405 51.0361 41.1975 48.279 39.6104C46.5668 38.6247 38.6856 34.5266 33.6615 32.7489C25.6562 29.9162 16.0943 28.6926 8.92783 26.1057C1.48972 23.4207 0.124881 18.1505 0.778592 12.1018C1.42006 6.16635 5.98346 1.21759 11.9809 1.12193Z" fill="#E6F4F1"/>
</svg>
