<svg width="225" height="225" viewBox="0 0 225 225" fill="none" xmlns="http://www.w3.org/2000/svg">
<path d="M238.964 -13.9899C212.558 -40.4472 177.385 -55 140 -55C102.615 -55 67.4417 -40.4472 41.0101 -13.9899C14.5528 12.4417 0 47.5895 0 85C0 122.41 14.5528 157.533 41.0101 183.99C67.4417 210.421 102.615 225 140 225C177.385 225 212.558 210.447 238.99 183.99C265.421 157.558 280 122.385 280 85C280 47.6152 265.447 12.4417 238.99 -13.9899H238.964ZM274.421 82.2489H274.009C258.582 82.2489 245.752 70.8329 243.335 55.5859C239.17 29.5399 229.451 5.60239 214.975 -13.7071C214.641 -14.1442 214.281 -14.5813 213.947 -15.0184C217.521 -16.4839 221.043 -18.0266 224.437 -19.7236C228.14 -16.741 231.714 -13.5528 235.107 -10.1331C259.868 14.6272 273.726 47.3324 274.421 82.2231V82.2489ZM208.599 182.884C201.708 180.339 194.509 178.179 187.052 176.431C196.437 151.747 201.682 120.714 201.965 87.7254H205.282C225.131 87.7254 240.07 106.186 235.545 125.522C230.479 147.119 221.352 166.814 208.676 182.884H208.624H208.599ZM71.3242 182.884C58.6226 166.814 49.495 147.119 44.4298 125.522C39.9045 106.186 54.843 87.7512 74.6924 87.7512H78.0092C78.292 120.739 83.5372 151.773 92.922 176.456C85.4398 178.205 78.2663 180.365 71.3756 182.91H71.3242V182.884ZM71.3756 -12.91C78.2663 -10.3646 85.4656 -8.20478 92.922 -6.45638C83.5372 18.2268 78.292 49.2608 78.0092 82.2489H74.6924C54.843 82.2489 39.9045 63.7879 44.4298 44.4784C49.495 22.8806 58.6226 3.18549 71.3242 -12.8843H71.3756V-12.91ZM83.5115 87.8797C97.55 88.5739 110.663 94.2819 120.691 104.309C131.361 114.98 137.249 129.198 137.249 144.291V171.211C123.982 171.365 110.946 172.78 98.3728 175.325C89.0395 151.182 83.7943 120.534 83.5115 87.8797ZM137.249 -6.7135C124.676 -6.86777 112.334 -8.17906 100.43 -10.5445C100.481 -10.6731 100.533 -10.8531 100.61 -10.9816C110.689 -34.2764 123.596 -47.775 137.275 -49.3691V-6.7135H137.249ZM98.3728 -5.32507C110.946 -2.7539 123.956 -1.36547 137.249 -1.2112V25.7089C137.249 40.8274 131.361 55.0202 120.691 65.6905C110.663 75.7181 97.55 81.4261 83.5115 82.1203C83.7943 49.4665 89.0395 18.8182 98.3728 -5.32507ZM137.249 176.688V219.318C123.596 217.724 110.663 204.251 100.584 180.93C100.533 180.776 100.481 180.622 100.404 180.493C112.309 178.128 124.65 176.842 137.249 176.688ZM142.725 176.688C155.298 176.842 167.64 178.153 179.57 180.493C179.519 180.647 179.467 180.802 179.39 180.93C169.311 204.225 156.404 217.724 142.725 219.318V176.688ZM181.601 175.325C169.054 172.78 156.018 171.365 142.725 171.211V144.291C142.725 129.173 148.613 114.98 159.284 104.309C169.311 94.3076 182.424 88.5739 196.463 87.8797C196.18 120.534 190.935 151.182 181.601 175.325ZM159.284 65.6905C148.613 55.0202 142.725 40.8017 142.725 25.7089V-1.2112C155.993 -1.36547 169.028 -2.77961 181.601 -5.32507C190.935 18.8182 196.18 49.4665 196.463 82.1203C182.424 81.4261 169.311 75.7181 159.284 65.6905ZM142.725 -6.7135V-49.3434C156.404 -47.7493 169.311 -34.2507 179.39 -10.9559C179.442 -10.8274 179.493 -10.6474 179.57 -10.5188C167.64 -8.15335 155.324 -6.86776 142.751 -6.68778L142.725 -6.7135ZM184.43 -13.1414C178.002 -28.0285 170.288 -39.213 161.855 -46.258C177.693 -41.5271 192.4 -31.7052 204.922 -17.3581C198.571 -15.0955 191.938 -13.1671 185.047 -11.5987C184.841 -12.0872 184.661 -12.6529 184.455 -13.1414H184.43ZM95.5445 -13.1414C95.3388 -12.6529 95.1589 -12.1129 94.9532 -11.5987C88.0882 -13.1671 81.4546 -15.0955 75.0781 -17.3581C87.5739 -31.7052 102.307 -41.5271 118.119 -46.258C109.66 -39.213 101.972 -28.0285 95.5445 -13.1414ZM94.9532 181.599C95.1589 182.087 95.3388 182.653 95.5445 183.141C101.972 198.028 109.66 209.213 118.119 216.258C102.281 211.553 87.5739 201.705 75.0523 187.358C81.4288 185.096 88.0624 183.167 94.9275 181.599H94.9532ZM184.43 183.116C184.635 182.627 184.815 182.087 185.021 181.573C191.886 183.141 198.52 185.07 204.896 187.332C192.4 201.68 177.668 211.501 161.829 216.232C170.288 209.187 177.976 198.003 184.404 183.116H184.43ZM201.965 82.2489C201.682 49.2608 196.437 18.2011 187.052 -6.45638C194.534 -8.20478 201.708 -10.3646 208.599 -12.91H208.65C221.352 3.1855 230.479 22.8549 235.545 44.4527C240.07 63.7879 225.131 82.2489 205.282 82.2489H201.965ZM219.552 -23.4775C216.569 -22.0634 213.484 -20.7264 210.347 -19.4922C202.608 -28.6713 193.995 -36.1791 184.79 -41.8871C197.183 -37.5161 208.882 -31.3453 219.552 -23.4775ZM69.6529 -19.4922C66.5161 -20.7264 63.4307 -22.0634 60.4481 -23.4775C71.1185 -31.3453 82.8173 -37.5161 95.2103 -41.8871C86.0055 -36.1791 77.3921 -28.6455 69.6529 -19.4922ZM44.8926 -10.1074C48.3122 -13.5271 51.8861 -16.7153 55.5629 -19.6979C58.9568 -18.0266 62.4536 -16.4582 66.0275 -14.9927C65.6933 -14.5556 65.3333 -14.1442 64.9991 -13.6814C50.5234 5.6281 40.8044 29.5657 36.6391 55.6116C34.1965 70.8586 21.3921 82.2746 5.96511 82.2746H5.55372C6.24793 47.3838 20.1322 14.6786 44.8926 -10.0817V-10.1074ZM5.55372 87.7254H5.96511C21.3921 87.7254 34.1965 99.1414 36.6391 114.388C40.8044 140.434 50.4977 164.372 64.9991 183.681C65.3333 184.118 65.6933 184.556 66.0275 184.993C62.4536 186.458 58.9311 188.001 55.5629 189.698C51.8604 186.715 48.2865 183.527 44.8926 180.107C20.1322 155.347 6.27365 122.642 5.55372 87.7512V87.7254ZM60.4481 193.452C63.4307 192.038 66.5161 190.701 69.6529 189.466C77.3921 198.646 85.9798 206.153 95.2103 211.861C82.843 207.49 71.1442 201.32 60.4481 193.452ZM210.347 189.466C213.484 190.701 216.569 192.038 219.552 193.452C208.882 201.32 197.183 207.49 184.79 211.861C193.995 206.153 202.608 198.62 210.347 189.466ZM235.107 180.107C231.688 183.527 228.114 186.715 224.437 189.698C221.043 188.027 217.546 186.458 213.947 184.993C214.281 184.556 214.641 184.144 214.975 183.681C229.451 164.372 239.17 140.434 243.335 114.388C245.778 99.1414 258.582 87.7254 274.009 87.7254H274.421C273.726 122.616 259.842 155.321 235.107 180.082V180.107Z" fill="#82B4D3"/>
</svg>
