<svg width="193" height="130" viewBox="0 0 193 130" fill="none" xmlns="http://www.w3.org/2000/svg">
<path d="M151.964 41.0101C125.558 14.5528 90.3848 0 53 0C15.6152 0 -19.5583 14.5528 -45.9899 41.0101C-72.4472 67.4417 -87 102.59 -87 140C-87 177.41 -72.4472 212.533 -45.9899 238.99C-19.5583 265.421 15.6152 280 53 280C90.3848 280 125.558 265.447 151.99 238.99C178.421 212.558 193 177.385 193 140C193 102.615 178.447 67.4417 151.99 41.0101H151.964ZM187.421 137.249H187.009C171.582 137.249 158.752 125.833 156.335 110.586C152.17 84.5399 142.451 60.6024 127.975 41.2929C127.641 40.8558 127.281 40.4187 126.947 39.9816C130.521 38.5161 134.043 36.9734 137.437 35.2764C141.14 38.259 144.714 41.4472 148.107 44.8669C172.868 69.6272 186.726 102.332 187.421 137.223V137.249ZM121.599 237.884C114.708 235.339 107.509 233.179 100.052 231.431C109.437 206.747 114.682 175.714 114.965 142.725H118.282C138.131 142.725 153.07 161.186 148.545 180.522C143.479 202.119 134.352 221.814 121.676 237.884H121.624H121.599ZM-15.6758 237.884C-28.3774 221.814 -37.505 202.119 -42.5702 180.522C-47.0955 161.186 -32.157 142.751 -12.3076 142.751H-8.99081C-8.70798 175.739 -3.46281 206.773 5.92195 231.456C-1.56015 233.205 -8.7337 235.365 -15.6244 237.91H-15.6758V237.884ZM-15.6244 42.09C-8.7337 44.6354 -1.53443 46.7952 5.92195 48.5436C-3.46281 73.2268 -8.70798 104.261 -8.99081 137.249H-12.3076C-32.157 137.249 -47.0955 118.788 -42.5702 99.4784C-37.505 77.8806 -28.3774 58.1855 -15.6758 42.1157H-15.6244V42.09ZM-3.48852 142.88C10.55 143.574 23.663 149.282 33.6905 159.309C44.3609 169.98 50.2489 184.198 50.2489 199.291V226.211C36.9816 226.365 23.9458 227.78 11.3728 230.325C2.03948 206.182 -3.20569 175.534 -3.48852 142.88ZM50.2489 48.2865C37.6759 48.1322 25.3343 46.8209 13.4298 44.4555C13.4812 44.3269 13.5326 44.1469 13.6097 44.0184C23.6887 20.7236 36.596 7.22498 50.2746 5.63085V48.2865H50.2489ZM11.3728 49.6749C23.9458 52.2461 36.9559 53.6345 50.2489 53.7888V80.7089C50.2489 95.8274 44.3609 110.02 33.6905 120.691C23.663 130.718 10.55 136.426 -3.48852 137.12C-3.20569 104.466 2.03948 73.8182 11.3728 49.6749ZM50.2489 231.688V274.318C36.596 272.724 23.663 259.251 13.584 235.93C13.5326 235.776 13.4812 235.622 13.404 235.493C25.3085 233.128 37.6501 231.842 50.2489 231.688ZM55.7254 231.688C68.2984 231.842 80.64 233.153 92.5702 235.493C92.5188 235.647 92.4674 235.802 92.3903 235.93C82.3113 259.225 69.404 272.724 55.7254 274.318V231.688ZM94.6015 230.325C82.0542 227.78 69.0184 226.365 55.7254 226.211V199.291C55.7254 184.173 61.6134 169.98 72.2838 159.309C82.3113 149.308 95.4243 143.574 109.463 142.88C109.18 175.534 103.935 206.182 94.6015 230.325ZM72.2838 120.691C61.6134 110.02 55.7254 95.8017 55.7254 80.7089V53.7888C68.9927 53.6345 82.0285 52.2204 94.6015 49.6749C103.935 73.8182 109.18 104.466 109.463 137.12C95.4243 136.426 82.3113 130.718 72.2838 120.691ZM55.7254 48.2865V5.65657C69.404 7.25069 82.3113 20.7493 92.3903 44.0441C92.4417 44.1726 92.4931 44.3526 92.5702 44.4812C80.64 46.8466 68.3242 48.1322 55.7512 48.3122L55.7254 48.2865ZM97.4298 41.8586C91.0018 26.9715 83.2883 15.787 74.8549 8.74197C90.6933 13.4729 105.4 23.2948 117.922 37.6419C111.571 39.9045 104.938 41.8329 98.0468 43.4013C97.8411 42.9128 97.6612 42.3471 97.4555 41.8586H97.4298ZM8.54454 41.8586C8.33884 42.3471 8.15887 42.8871 7.95317 43.4013C1.08816 41.8329 -5.54545 39.9045 -11.9219 37.6419C0.573929 23.2948 15.3067 13.4729 31.1194 8.74197C22.6602 15.787 14.9725 26.9715 8.54454 41.8586ZM7.95317 236.599C8.15887 237.087 8.33884 237.653 8.54454 238.141C14.9725 253.028 22.6602 264.213 31.1194 271.258C15.281 266.553 0.573921 256.705 -11.9477 242.358C-5.57116 240.096 1.06244 238.167 7.92745 236.599H7.95317ZM97.4298 238.116C97.6355 237.627 97.8154 237.087 98.0211 236.573C104.886 238.141 111.52 240.07 117.896 242.332C105.4 256.68 90.6676 266.501 74.8292 271.232C83.2883 264.187 90.9761 253.003 97.4041 238.116H97.4298ZM114.965 137.249C114.682 104.261 109.437 73.2011 100.052 48.5436C107.534 46.7952 114.708 44.6354 121.599 42.09H121.65C134.352 58.1855 143.479 77.8549 148.545 99.4527C153.07 118.788 138.131 137.249 118.282 137.249H114.965ZM132.552 31.5225C129.569 32.9366 126.484 34.2736 123.347 35.5078C115.608 26.3287 106.995 18.8209 97.7897 13.1129C110.183 17.4839 121.882 23.6547 132.552 31.5225ZM-17.3471 35.5078C-20.4839 34.2736 -23.5693 32.9366 -26.5519 31.5225C-15.8815 23.6547 -4.18274 17.4839 8.21028 13.1129C-0.994492 18.8209 -9.60789 26.3545 -17.3471 35.5078ZM-42.1074 44.8926C-38.6878 41.4729 -35.1139 38.2847 -31.4371 35.3021C-28.0432 36.9734 -24.5464 38.5418 -20.9725 40.0073C-21.3067 40.4444 -21.6667 40.8558 -22.0009 41.3186C-36.4766 60.6281 -46.1956 84.5657 -50.3609 110.612C-52.8035 125.859 -65.6079 137.275 -81.0349 137.275H-81.4463C-80.7521 102.384 -66.8678 69.6786 -42.1074 44.9183V44.8926ZM-81.4463 142.725H-81.0349C-65.6079 142.725 -52.8035 154.141 -50.3609 169.388C-46.1956 195.434 -36.5023 219.372 -22.0009 238.681C-21.6667 239.118 -21.3067 239.556 -20.9725 239.993C-24.5464 241.458 -28.0689 243.001 -31.4371 244.698C-35.1396 241.715 -38.7135 238.527 -42.1074 235.107C-66.8678 210.347 -80.7264 177.642 -81.4463 142.751V142.725ZM-26.5519 248.452C-23.5693 247.038 -20.4839 245.701 -17.3471 244.466C-9.60789 253.646 -1.0202 261.153 8.21028 266.861C-4.15703 262.49 -15.8558 256.32 -26.5519 248.452ZM123.347 244.466C126.484 245.701 129.569 247.038 132.552 248.452C121.882 256.32 110.183 262.49 97.7897 266.861C106.995 261.153 115.608 253.62 123.347 244.466ZM148.107 235.107C144.688 238.527 141.114 241.715 137.437 244.698C134.043 243.027 130.546 241.458 126.947 239.993C127.281 239.556 127.641 239.144 127.975 238.681C142.451 219.372 152.17 195.434 156.335 169.388C158.778 154.141 171.582 142.725 187.009 142.725H187.421C186.726 177.616 172.842 210.321 148.107 235.082V235.107Z" fill="#82B4D3"/>
</svg>
