<svg width="64" height="86" viewBox="0 0 64 86" fill="none" xmlns="http://www.w3.org/2000/svg">
<path d="M69.2334 0.57104L69.1646 0.558521C63.5985 -0.412644 60.545 2.18308 57.8404 6.32616C56.7153 8.0426 55.9685 9.63471 55.2423 11.1696C54.2021 13.369 53.1977 15.4835 51.214 17.7858C49.0415 20.2876 46.1024 21.2474 43.3056 22.1517C39.8066 23.2842 36.5339 24.346 35.2381 28.2878C33.6667 33.0739 37.7275 35.6721 41.9967 38.4098C45.9922 40.9758 50.18 43.658 50.1139 48.3824C50.1112 48.453 50.1086 48.5237 50.1059 48.5944C49.9987 51.4208 47.8906 53.9038 45.1143 54.4155C40.4669 55.268 37.1207 51.5902 33.9284 48.0725C30.5241 44.3232 27.2798 40.7555 22.8194 43.0954C19.1461 45.0195 18.6471 48.4353 18.1088 52.0676C17.6813 54.9781 17.2288 58.0263 15.1261 60.5916C13.1942 62.944 11.2757 64.2723 9.27406 65.6667C7.87699 66.6426 6.43521 67.6408 4.92993 69.0442C1.30135 72.3994 -0.75661 75.8367 1.12991 81.1701L1.15675 81.2461L1.18537 81.3123C3.17117 86.6028 6.94659 87.9193 11.8937 88.1579C13.9491 88.2571 15.6959 88.097 17.3899 87.9475C19.8183 87.7283 22.1429 87.5208 25.1321 88.0743C28.3968 88.6779 30.6982 90.7225 32.8941 92.6768C35.6418 95.1176 38.2143 97.4045 42.2669 96.5252C47.1889 95.4481 47.3811 90.6451 47.5705 85.5772C47.7519 80.8332 47.945 75.8575 52.0583 73.5256C54.6414 72.064 58.0456 72.6828 59.9356 74.9779C62.9437 78.6145 61.3536 83.3362 59.8439 87.8388C58.2278 92.6473 56.6878 97.2054 60.9123 99.9654C64.3827 102.233 67.6035 101.009 71.0425 99.703C73.7938 98.6583 76.6756 97.5661 79.942 98.1599C82.933 98.7036 85.0341 99.7258 87.2281 100.795C88.7594 101.541 90.3381 102.306 92.2951 102.946C96.9963 104.482 101 104.6 104.738 100.36C104.752 100.342 104.777 100.316 104.79 100.299L104.83 100.245C108.491 95.93 107.794 91.9919 105.592 87.5565C104.677 85.7131 103.69 84.2633 102.726 82.8581C101.353 80.8502 100.038 78.9138 99.0677 76.0338C98.0024 72.8926 98.6731 69.8739 99.3054 67.0108C100.099 63.425 100.844 60.0539 98.0949 56.9521C94.7567 53.1741 90.468 55.3522 85.9441 57.6502C81.7117 59.7978 77.2772 62.051 73.2406 59.5995C72.8918 59.3938 72.5599 59.1505 72.22 58.8956C70.1619 57.3018 69.2146 54.5175 70.1072 52.0677C71.726 47.6357 76.588 46.6088 81.2372 45.6346C86.2031 44.596 90.9149 43.6128 91.1499 38.5736C91.3439 34.4315 88.6561 32.2761 85.7929 29.9667C83.5049 28.1279 81.0917 26.1951 79.9601 23.0825C78.9136 20.2293 78.7373 17.9003 78.5395 15.4656C78.4116 13.7653 78.2711 12.0221 77.8337 10.0114C76.7736 5.16368 74.8487 1.66295 69.3023 0.58356L69.2334 0.57104Z" fill="#0043B1"/>
</svg>
