<svg width="104" height="70" viewBox="0 0 104 70" fill="none" xmlns="http://www.w3.org/2000/svg">
<path d="M1.85556 -43.1447L1.79786 -43.105C-2.83696 -39.8735 -3.17582 -35.8802 -2.17707 -31.0343C-1.76659 -29.0234 -1.17515 -27.3673 -0.609436 -25.7663C0.201594 -23.4725 0.978159 -21.2642 1.1919 -18.2327C1.41219 -14.9266 0.00219895 -12.175 -1.34592 -9.56296C-3.03172 -6.29443 -4.60668 -3.23547 -2.74984 0.475213C-0.493738 4.97923 4.21876 3.96291 9.17746 2.89881C13.8209 1.90562 18.6828 0.859504 21.9638 4.25932C22.0117 4.31136 22.0596 4.3634 22.1074 4.41544C24.0223 6.49712 24.2751 9.74449 22.6649 12.0634C19.9668 15.9422 15.001 15.6888 10.2573 15.4408C5.19984 15.1776 0.383957 14.9305 -1.13369 19.7334C-2.38567 23.6866 -0.333669 26.4626 1.84287 29.42C3.58967 31.7869 5.41572 34.2692 5.73027 37.5712C6.01611 40.6018 5.59005 42.896 5.15157 45.2958C4.84737 46.9726 4.52718 48.6967 4.44733 50.7532C4.23521 55.6906 5.19581 59.5801 10.2918 62.0368L10.3644 62.0718L10.4313 62.0986C15.5675 64.4549 19.1746 62.7299 22.8541 59.4144C24.3829 58.037 25.5099 56.6929 26.6071 55.3935C28.1763 53.5273 29.68 51.7425 32.1917 50.0298C34.9341 48.1585 38.0079 47.9886 40.9431 47.8289C44.6127 47.6257 48.0496 47.4369 50.3067 43.958C53.0415 39.7264 49.7946 36.1819 46.3592 32.4514C43.1462 28.9563 39.7782 25.2887 41.0552 20.736C41.8591 17.879 44.7113 15.9203 47.6694 16.2179C52.3662 16.6802 54.5636 21.1518 56.6638 25.4111C58.9039 29.9625 61.0216 34.2825 65.9643 33.2658C70.0246 32.4304 71.4487 29.2931 72.9698 25.9436C74.1866 23.2641 75.4627 20.4589 78.1995 18.5794C80.7054 16.8584 82.9168 16.104 85.2276 15.3177C86.84 14.7684 88.4991 14.1992 90.3393 13.2751C94.7578 11.0535 97.6825 8.31708 97.3496 2.67428C97.3465 2.65213 97.346 2.61608 97.3429 2.59393L97.3337 2.52748C96.8926 -3.11382 93.6239 -5.41816 88.9364 -7.01507C86.9884 -7.6789 85.2668 -8.01299 83.5926 -8.3311C81.2036 -8.78914 78.9063 -9.23735 76.1887 -10.5979C73.2198 -12.077 71.5695 -14.6921 70.0014 -17.1697C68.0392 -20.2742 66.1933 -23.1918 62.0568 -23.4565C57.0261 -23.7866 55.5163 -19.2196 53.924 -14.4019C52.4328 -9.89615 50.8724 -5.17312 46.2804 -4.06969C45.8879 -3.96997 45.481 -3.90889 45.0602 -3.8504C42.4767 -3.53188 39.843 -4.84087 38.7508 -7.20848C36.7778 -11.4945 39.5055 -15.6484 42.1192 -19.6148C44.9122 -23.85 47.5641 -27.8669 44.1813 -31.6092C41.4012 -34.6858 37.975 -34.3224 34.3161 -33.9447C31.3968 -33.6382 28.3224 -33.3102 25.3267 -34.7223C22.574 -36.0103 20.8083 -37.5393 18.9529 -39.128C17.6644 -40.2447 16.3367 -41.3831 14.6099 -42.5021C10.4426 -45.1963 6.61035 -46.3251 1.91326 -43.1843L1.85556 -43.1447Z" fill="#0043B1"/>
</svg>
