<svg width="450" height="455" viewBox="0 0 450 455" fill="none" xmlns="http://www.w3.org/2000/svg">
<path d="M215.511 436.888L218.709 241.744V53.9342C218.709 35.2171 241.477 25.5814 254.694 38.8411L417.818 202.434C431.035 215.694 421.911 238.547 402.767 238.547H259.256C243.31 238.547 235.124 258.202 246.508 269.628L426.004 449.679C437.388 461.105 457 452.876 457 436.888V30.1434C457 13.2171 443.314 0 426.942 0H20.9648C1.82137 0 -6.36468 19.6551 8.21673 31.0814L179.527 202.903C192.744 216.163 183.62 239.016 164.477 239.016H20.9648C1.82137 239.016 -6.36468 258.671 8.21673 270.097L187.713 449.679C195.899 461.105 215.511 452.876 215.511 436.888Z" fill="#2139B1"/>
</svg>
