<svg width="32" height="33" viewBox="0 0 32 33" fill="none" xmlns="http://www.w3.org/2000/svg">
<path d="M11.7297 6.61258C13.6297 3.2042 14.5796 1.5 16 1.5C17.4203 1.5 18.3703 3.20418 20.2702 6.61256L20.7617 7.49435C21.3017 8.4629 21.5716 8.9472 21.9926 9.26673C22.4135 9.58626 22.9376 9.70486 23.9861 9.94209L24.9407 10.1581C28.6301 10.9929 30.475 11.4102 30.9139 12.8216C31.3528 14.2329 30.0952 15.7037 27.5798 18.6449L26.9291 19.4058C26.2144 20.2416 25.8569 20.6595 25.6961 21.1766C25.5355 21.6936 25.5895 22.2512 25.6975 23.3664L25.7959 24.3816C26.1761 28.3059 26.3663 30.2681 25.2173 31.1403C24.0682 32.0126 22.3409 31.2173 18.8864 29.6268L17.9927 29.2152C17.0111 28.7633 16.5203 28.5372 16 28.5372C15.4796 28.5372 14.9888 28.7633 14.0072 29.2152L13.1135 29.6268C9.65901 31.2173 7.93176 32.0126 6.78272 31.1403C5.63368 30.2681 5.82382 28.3059 6.2041 24.3816L6.30247 23.3664C6.41054 22.2512 6.46457 21.6936 6.30379 21.1766C6.14302 20.6595 5.78564 20.2416 5.07088 19.4058L4.42015 18.6449C1.90488 15.7037 0.647233 14.2329 1.08613 12.8216C1.52503 11.4102 3.36979 10.9929 7.0593 10.1581L8.01383 9.94209C9.06227 9.70486 9.58649 9.58626 10.0074 9.26673C10.4283 8.9472 10.6983 8.46292 11.2382 7.49435L11.7297 6.61258Z" fill="#E6F4F1" stroke="#E6F4F1" stroke-width="2"/>
</svg>
