<svg width="36" height="35" viewBox="0 0 36 35" fill="none" xmlns="http://www.w3.org/2000/svg">
<rect x="0.652344" width="35" height="35" rx="3" fill="#7897FF"/>
<path d="M10.6523 18.7692L9.95719 18.0504L9.21382 18.7692L9.95719 19.4881L10.6523 18.7692ZM25.6523 12C25.6523 11.4477 25.2046 11 24.6523 11C24.1001 11 23.6523 11.4477 23.6523 12L25.6523 12ZM15.0273 14.5385L14.3322 13.8196L9.95719 18.0504L10.6523 18.7692L11.3475 19.4881L15.7225 15.2573L15.0273 14.5385ZM10.6523 18.7692L9.95719 19.4881L14.3322 23.7189L15.0273 23L15.7225 22.2811L11.3475 18.0504L10.6523 18.7692ZM10.6523 18.7692L10.6523 19.7692L18.6523 19.7692L18.6523 18.7692L18.6523 17.7692L10.6523 17.7692L10.6523 18.7692ZM24.6523 12.7692L25.6523 12.7692L25.6523 12L24.6523 12L23.6523 12L23.6523 12.7692L24.6523 12.7692ZM18.6523 18.7692L18.6523 19.7692C22.5183 19.7692 25.6523 16.6352 25.6523 12.7692L24.6523 12.7692L23.6523 12.7692C23.6523 15.5307 21.4138 17.7692 18.6523 17.7692L18.6523 18.7692Z" fill="#EFEDFF"/>
</svg>
