<svg width="25" height="25" viewBox="0 0 25 25" fill="none" xmlns="http://www.w3.org/2000/svg">
<rect width="25" height="25" rx="3" fill="#EFEDFF"/>
<path d="M19.5 13.7692L20.1952 13.0504L20.9385 13.7692L20.1952 14.4881L19.5 13.7692ZM4.5 7C4.5 6.44772 4.94771 6 5.5 6C6.05228 6 6.5 6.44772 6.5 7L4.5 7ZM15.125 9.53846L15.8202 8.8196L20.1952 13.0504L19.5 13.7692L18.8048 14.4881L14.4298 10.2573L15.125 9.53846ZM19.5 13.7692L20.1952 14.4881L15.8202 18.7189L15.125 18L14.4298 17.2811L18.8048 13.0504L19.5 13.7692ZM19.5 13.7692L19.5 14.7692L11.5 14.7692L11.5 13.7692L11.5 12.7692L19.5 12.7692L19.5 13.7692ZM5.5 7.76923L4.5 7.76923L4.5 7L5.5 7L6.5 7L6.5 7.76923L5.5 7.76923ZM11.5 13.7692L11.5 14.7692C7.63401 14.7692 4.5 11.6352 4.5 7.76923L5.5 7.76923L6.5 7.76923C6.5 10.5307 8.73858 12.7692 11.5 12.7692L11.5 13.7692Z" fill="#212B30"/>
</svg>
