<svg width="35" height="35" viewBox="0 0 35 35" fill="none" xmlns="http://www.w3.org/2000/svg">
<rect width="35" height="35" rx="3" fill="#7897FF"/>
<path d="M10 17.2308L9.30484 16.5119L8.56148 17.2308L9.30484 17.9496L10 17.2308ZM24 18.2308C24.5523 18.2308 25 17.7831 25 17.2308C25 16.6785 24.5523 16.2308 24 16.2308L24 18.2308ZM14.375 13L13.6798 12.2811L9.30484 16.5119L10 17.2308L10.6952 17.9496L15.0702 13.7189L14.375 13ZM10 17.2308L9.30484 17.9496L13.6798 22.1804L14.375 21.4615L15.0702 20.7427L10.6952 16.5119L10 17.2308ZM10 17.2308L10 18.2308L24 18.2308L24 17.2308L24 16.2308L10 16.2308L10 17.2308Z" fill="#EFEDFF"/>
</svg>
