<svg width="36" height="35" viewBox="0 0 36 35" fill="none" xmlns="http://www.w3.org/2000/svg">
<rect x="0.652344" width="35" height="35" rx="3" fill="#7897FF"/>
<path d="M24.6523 18.7692L25.3475 18.0504L26.0909 18.7692L25.3475 19.4881L24.6523 18.7692ZM9.65234 12C9.65234 11.4477 10.1001 11 10.6523 11C11.2046 11 11.6523 11.4477 11.6523 12L9.65234 12ZM20.2773 14.5385L20.9725 13.8196L25.3475 18.0504L24.6523 18.7692L23.9572 19.4881L19.5822 15.2573L20.2773 14.5385ZM24.6523 18.7692L25.3475 19.4881L20.9725 23.7189L20.2773 23L19.5822 22.2811L23.9572 18.0504L24.6523 18.7692ZM24.6523 18.7692L24.6523 19.7692L16.6523 19.7692L16.6523 18.7692L16.6523 17.7692L24.6523 17.7692L24.6523 18.7692ZM10.6523 12.7692L9.65234 12.7692L9.65234 12L10.6523 12L11.6523 12L11.6523 12.7692L10.6523 12.7692ZM16.6523 18.7692L16.6523 19.7692C12.7863 19.7692 9.65234 16.6352 9.65234 12.7692L10.6523 12.7692L11.6523 12.7692C11.6523 15.5307 13.8909 17.7692 16.6523 17.7692L16.6523 18.7692Z" fill="#EFEDFF"/>
</svg>
