<svg width="35" height="35" viewBox="0 0 35 35" fill="none" xmlns="http://www.w3.org/2000/svg">
<rect width="35" height="35" rx="3" fill="#7897FF"/>
<path d="M24 17.2308L24.6952 16.5119L25.4385 17.2308L24.6952 17.9496L24 17.2308ZM10 18.2308C9.44771 18.2308 9 17.7831 9 17.2308C9 16.6785 9.44771 16.2308 10 16.2308L10 18.2308ZM19.625 13L20.3202 12.2811L24.6952 16.5119L24 17.2308L23.3048 17.9496L18.9298 13.7189L19.625 13ZM24 17.2308L24.6952 17.9496L20.3202 22.1804L19.625 21.4615L18.9298 20.7427L23.3048 16.5119L24 17.2308ZM24 17.2308L24 18.2308L10 18.2308L10 17.2308L10 16.2308L24 16.2308L24 17.2308Z" fill="#EFEDFF"/>
</svg>
